<svg xmlns="http://www.w3.org/2000/svg" viewBox="0 0 800 800">
<defs>
  <pattern id="grain" width="130" height="130" patternUnits="userSpaceOnUse">
    <path d="M0 24 C42 2 84 48 130 20 M0 61 C45 35 78 88 130 58 M0 103 C48 78 92 126 130 94" fill="none" stroke="#2c170d" stroke-width="4" opacity=".22"/>
  </pattern>
</defs>

<rect width="800" height="800" fill="#e4c999"/>
<circle cx="505" cy="250" r="72" fill="#b87936"/>
<path d="M0 530 C130 390 240 365 340 470 C470 610 565 360 800 280 L800 800 L0 800Z" fill="#362014"/>
<path d="M0 630 C140 500 270 480 420 585 C545 675 640 565 800 510 L800 800 L0 800Z" fill="#c99754"/>
<path d="M0 725 C155 605 260 625 415 690 C575 760 680 665 800 630 L800 800 L0 800Z" fill="#7d4b2c"/>
<path d="M430 510 C550 470 650 480 800 450" stroke="#f5e4be" stroke-width="18" fill="none" opacity=".75"/>
<rect width="800" height="800" fill="url(#grain)" opacity=".32"/>
</svg>