<svg xmlns="http://www.w3.org/2000/svg" viewBox="0 0 800 800">
<defs>
  <pattern id="grain" width="130" height="130" patternUnits="userSpaceOnUse">
    <path d="M0 24 C42 2 84 48 130 20 M0 61 C45 35 78 88 130 58 M0 103 C48 78 92 126 130 94" fill="none" stroke="#2c170d" stroke-width="4" opacity=".22"/>
  </pattern>
</defs>

<rect width="800" height="800" fill="#dfc18b"/>
<circle cx="590" cy="220" r="130" fill="#f3dda9"/>
<path d="M0 530 C185 280 260 280 420 530 C535 715 630 565 800 310 L800 800 L0 800Z" fill="#1f120d"/>
<path d="M0 680 C160 450 285 430 440 660 C560 825 660 670 800 500 L800 800 L0 800Z" fill="#b87637"/>
<path d="M0 770 C170 570 300 580 460 735 C575 842 675 765 800 650 L800 800 L0 800Z" fill="#e4bd74"/>
<path d="M0 530 C180 390 300 430 430 580 C555 720 650 640 800 510" stroke="#f7e5bd" stroke-width="12" fill="none"/>
<path d="M0 665 C195 520 310 540 445 690 C565 820 670 740 800 635" stroke="#2a170f" stroke-width="10" fill="none" opacity=".8"/>
<rect width="800" height="800" fill="url(#grain)" opacity=".28"/>
</svg>