<svg xmlns="http://www.w3.org/2000/svg" viewBox="0 0 64 64" role="img" aria-label="Handmade icon">
  <path fill="#bfa36a" d="M33.6 8.8c1.8 0 3.2 1.4 3.2 3.2v15.4h1.6V15.6c0-1.8 1.4-3.2 3.2-3.2s3.2 1.4 3.2 3.2v14h1.6V20c0-1.8 1.4-3.2 3.2-3.2s3.2 1.4 3.2 3.2v16.4c0 10.5-8.5 19-19 19h-2.3c-6 0-11.6-2.8-15.2-7.6L8.2 37.2c-1.3-1.7-1-4.1.7-5.4 1.6-1.2 3.8-.9 5.2.6l5.1 5.7V14.8c0-1.8 1.4-3.2 3.2-3.2s3.2 1.4 3.2 3.2v16.6h1.6V12c0-1.8 1.4-3.2 3.2-3.2Zm-3.2 3.8v22.6h-8.6V14.8h-.8v31.1L11.3 35a.8.8 0 0 0-1.1-.1c-.3.2-.3.7-.1 1l8.1 10.6a16.7 16.7 0 0 0 13.3 6.6h2.3c8.4 0 15.2-6.8 15.2-15.2V20h-.8v13.4h-7.2V15.6h-.8v17.8h-7.2V12h-.8v23.2h-5.6V12.6Z"/>
  <path fill="#bfa36a" d="M43.7 40.2 54.2 50.7l-3.5 3.5-10.5-10.5 3.5-3.5Zm1.4-8.1 3 3-5.4 5.4-3-3 5.4-5.4Z"/>
</svg>
